<svg width="20" height="20" viewBox="0 0 20 20" fill="none" xmlns="http://www.w3.org/2000/svg"><g id="business_center"><path id="icon/places/business_center_24px" fill-rule="evenodd" clip-rule="evenodd" d="M16.667 5.83333H13.3337C13.3337 3.99167 11.842 2.5 10.0003 2.5C8.15866 2.5 6.66699 3.99167 6.66699 5.83333H3.33366C2.41699 5.83333 1.66699 6.58333 1.66699 7.5V10C1.66699 10.925 2.40866 11.6667 3.33366 11.6667H8.33366V10.8333C8.33366 10.375 8.70866 10 9.16699 10H10.8337C11.292 10 11.667 10.375 11.667 10.8333V11.6667H16.667C17.5837 11.6667 18.3337 10.9167 18.3337 10V7.5C18.3337 6.58333 17.5837 5.83333 16.667 5.83333ZM9.16699 13.3333C8.70866 13.3333 8.33366 12.9583 8.33366 12.5H2.50866V15.8333C2.50866 16.75 3.25866 17.5 4.17533 17.5H15.8337C16.7503 17.5 17.5003 16.75 17.5003 15.8333V12.5H11.667C11.667 12.9583 11.292 13.3333 10.8337 13.3333H9.16699ZM10.0003 4.16667C9.08366 4.16667 8.33366 4.91667 8.33366 5.83333H11.667C11.667 4.91667 10.917 4.16667 10.0003 4.16667Z" fill="#4620ED"></path></g></svg>