<svg width="20" height="20" viewBox="0 0 20 20" fill="none" xmlns="http://www.w3.org/2000/svg"><g id="attach_money"><path id="icon/editor/attach_money_24px" d="M10.2497 9.08333C8.35801 8.59167 7.74967 8.08333 7.74967 7.29167C7.74967 6.38333 8.59134 5.75 9.99967 5.75C11.183 5.75 11.7747 6.2 11.9913 6.91667C12.0913 7.25 12.3663 7.5 12.7163 7.5H12.9663C13.5163 7.5 13.908 6.95833 13.7163 6.44167C13.3663 5.45833 12.5497 4.64167 11.2497 4.325V3.75C11.2497 3.05833 10.6913 2.5 9.99967 2.5C9.30801 2.5 8.74967 3.05833 8.74967 3.75V4.3C7.13301 4.65 5.83301 5.7 5.83301 7.30833C5.83301 9.23333 7.42467 10.1917 9.74967 10.75C11.833 11.25 12.2497 11.9833 12.2497 12.7583C12.2497 13.3333 11.8413 14.25 9.99967 14.25C8.62467 14.25 7.91634 13.7583 7.64134 13.0583C7.51634 12.7333 7.23301 12.5 6.89134 12.5H6.65801C6.09967 12.5 5.70801 13.0667 5.91634 13.5833C6.39134 14.7417 7.49967 15.425 8.74967 15.6917V16.25C8.74967 16.9417 9.30801 17.5 9.99967 17.5C10.6913 17.5 11.2497 16.9417 11.2497 16.25V15.7083C12.8747 15.4 14.1663 14.4583 14.1663 12.75C14.1663 10.3833 12.1413 9.575 10.2497 9.08333Z" fill="#4620ED"></path></g></svg>