<svg width="21" height="21" viewBox="0 0 21 21" fill="none" xmlns="http://www.w3.org/2000/svg">
<g id="people">
<path id="icon/social/people_24px" fill-rule="evenodd" clip-rule="evenodd" d="M9.65801 7.1665C9.65801 8.54984 8.54967 9.6665 7.16634 9.6665C5.78301 9.6665 4.66634 8.54984 4.66634 7.1665C4.66634 5.78317 5.78301 4.6665 7.16634 4.6665C8.54967 4.6665 9.65801 5.78317 9.65801 7.1665ZM16.3247 7.1665C16.3247 8.54984 15.2163 9.6665 13.833 9.6665C12.4497 9.6665 11.333 8.54984 11.333 7.1665C11.333 5.78317 12.4497 4.6665 13.833 4.6665C15.2163 4.6665 16.3247 5.78317 16.3247 7.1665ZM7.16634 11.3332C5.22467 11.3332 1.33301 12.3082 1.33301 14.2498V15.4998C1.33301 15.9582 1.70801 16.3332 2.16634 16.3332H12.1663C12.6247 16.3332 12.9997 15.9582 12.9997 15.4998V14.2498C12.9997 12.3082 9.10801 11.3332 7.16634 11.3332ZM13.0247 11.3748C13.3163 11.3498 13.5913 11.3332 13.833 11.3332C15.7747 11.3332 19.6663 12.3082 19.6663 14.2498V15.4998C19.6663 15.9582 19.2913 16.3332 18.833 16.3332H14.5163C14.608 16.0748 14.6663 15.7915 14.6663 15.4998V14.2498C14.6663 13.0248 14.008 12.0998 13.058 11.4082C13.0555 11.4056 13.053 11.4024 13.0502 11.3988C13.0439 11.3905 13.0363 11.3806 13.0247 11.3748Z" fill="#4620ED"/>
</g>
</svg>