<svg width="24" height="24" viewBox="0 0 24 24" fill="none" xmlns="http://www.w3.org/2000/svg"><path d="M12.0004 2.3999C6.70664 2.3999 2.40039 6.70615 2.40039 11.9999C2.40039 17.2937 6.70664 21.5999 12.0004 21.5999C17.2941 21.5999 21.6004 17.2937 21.6004 11.9999C21.6004 6.70615 17.2941 2.3999 12.0004 2.3999ZM12.0004 3.9999C12.1441 3.9999 12.3629 4.0874 12.6504 4.4249C12.9379 4.7624 13.2316 5.31553 13.5004 6.0499C13.6254 6.39365 13.7473 6.7874 13.8504 7.1999H10.1504C10.2535 6.7874 10.3754 6.39365 10.5004 6.0499C10.7691 5.31553 11.0629 4.7624 11.3504 4.4249C11.6379 4.0874 11.8566 3.9999 12.0004 3.9999ZM9.45039 4.3999C9.27227 4.73428 9.11914 5.10303 8.97539 5.4999C8.78789 6.01553 8.63789 6.59053 8.50039 7.1999H5.60039C6.56289 5.91553 7.89727 4.92178 9.45039 4.3999ZM14.5504 4.3999C16.1035 4.92178 17.4379 5.91553 18.4004 7.1999H15.5004C15.3629 6.59053 15.2129 6.01553 15.0254 5.4999C14.8816 5.10303 14.7285 4.73428 14.5504 4.3999ZM4.65039 8.7999H8.22539C8.12227 9.55928 8.05039 10.3655 8.02539 11.1999H4.05039C4.13164 10.3562 4.32852 9.54678 4.65039 8.7999ZM9.85039 8.7999H14.1504C14.2629 9.5499 14.3441 10.3562 14.3754 11.1999H9.62539C9.65664 10.3562 9.73789 9.5499 9.85039 8.7999ZM15.7754 8.7999H19.3504C19.6723 9.54678 19.8691 10.3562 19.9504 11.1999H15.9754C15.9504 10.3655 15.8785 9.55928 15.7754 8.7999ZM4.05039 12.7999H8.02539C8.05039 13.6343 8.12227 14.4405 8.22539 15.1999H4.65039C4.32852 14.453 4.13164 13.6437 4.05039 12.7999ZM9.62539 12.7999H14.3754C14.3441 13.6437 14.2629 14.4499 14.1504 15.1999H9.85039C9.73789 14.4499 9.65664 13.6437 9.62539 12.7999ZM15.9754 12.7999H19.9504C19.8691 13.6437 19.6723 14.453 19.3504 15.1999H15.7754C15.8785 14.4405 15.9504 13.6343 15.9754 12.7999ZM5.60039 16.7999H8.50039C8.63789 17.4093 8.78789 17.9843 8.97539 18.4999C9.11914 18.8968 9.27227 19.2655 9.45039 19.5999C7.89727 19.078 6.56289 18.0843 5.60039 16.7999ZM10.1504 16.7999H13.8504C13.7473 17.2124 13.6254 17.6062 13.5004 17.9499C13.2316 18.6843 12.9379 19.2374 12.6504 19.5749C12.3629 19.9124 12.1441 19.9999 12.0004 19.9999C11.8566 19.9999 11.6379 19.9124 11.3504 19.5749C11.0629 19.2374 10.7691 18.6843 10.5004 17.9499C10.3754 17.6062 10.2535 17.2124 10.1504 16.7999ZM15.5004 16.7999H18.4004C17.4379 18.0843 16.1035 19.078 14.5504 19.5999C14.7285 19.2655 14.8816 18.8968 15.0254 18.4999C15.2129 17.9843 15.3629 17.4093 15.5004 16.7999Z" fill="#999999"></path></svg>