<svg width="115" height="34" viewBox="0 0 115 34" fill="none" xmlns="http://www.w3.org/2000/svg">
<g clip-path="url(#clip0_384_421)">
<path d="M5.6939 15.9587C8.09238 15.9817 10.0554 14.056 10.0784 11.6575C10.1015 9.25906 8.17576 7.29603 5.77728 7.27301C3.37879 7.24998 1.41577 9.17568 1.39275 11.5742C1.36973 13.9726 3.29541 15.9357 5.6939 15.9587Z" fill="#FF5F17"/>
<path d="M7.72907 3.36891C9.07065 2.57002 10.523 1.97389 12.0389 1.59985C13.4746 3.56215 14.3391 5.88357 14.5366 8.30695C14.7341 10.7303 14.2569 13.1611 13.1579 15.33C13.107 15.4273 13.0562 15.5268 13.0031 15.6241C11.8351 17.7657 10.0952 19.5407 7.97728 20.7511C5.85941 21.9615 3.4469 22.5598 1.00886 22.4792C0.46204 21.017 0.134894 19.4819 0.0380859 17.9238C1.82228 18.2317 3.6581 17.9701 5.28537 17.1764C6.91264 16.3826 8.24881 15.0968 9.10451 13.5012L9.20844 13.3066C10.0284 11.7026 10.3266 9.88246 10.0613 8.10067C9.7961 6.31889 8.98067 4.66453 7.72907 3.36891Z" fill="#FF5F17"/>
<path d="M25.8151 15.6285C28.2116 15.5276 30.0725 13.5031 29.9717 11.1067C29.8708 8.71019 27.8463 6.84922 25.4499 6.95008C23.0534 7.05094 21.1924 9.07544 21.2933 11.4719C21.3942 13.8684 23.4186 15.7293 25.8151 15.6285Z" fill="#BFC9FF"/>
<path d="M23.381 3.11463C22.0143 2.36067 20.5432 1.81368 19.0159 1.49152C17.6466 3.50041 16.8599 5.849 16.7428 8.27734C16.6257 10.7057 17.1828 13.1191 18.3525 15.2504C18.4055 15.3477 18.4608 15.445 18.5161 15.5401C19.7532 17.6423 21.5501 19.3595 23.7062 20.5001C25.8624 21.6407 28.2931 22.1597 30.727 21.9993C31.2255 20.5202 31.5027 18.9755 31.5496 17.4153C29.7784 17.7788 27.9377 17.5765 26.2877 16.8368C24.6377 16.0971 23.262 14.8576 22.355 13.2934C22.3174 13.2314 22.282 13.1673 22.2466 13.1032C21.3697 11.5281 21.0076 9.7181 21.211 7.92687C21.4144 6.13563 22.1732 4.45294 23.381 3.11463Z" fill="#BFC9FF"/>
<path d="M11.7243 26.5593C10.6097 28.6832 11.4279 31.3085 13.5518 32.4231C15.6757 33.5377 18.301 32.7195 19.4156 30.5956C20.5302 28.4717 19.712 25.8464 17.5881 24.7318C15.4642 23.6172 12.8389 24.4354 11.7243 26.5593Z" fill="#4620ED"/>
<path d="M24.011 30.7208C25.3485 29.9157 26.5594 28.9172 27.6044 27.7576C26.5545 25.5646 24.9182 23.7049 22.8765 22.3845C20.8349 21.0642 18.4677 20.3346 16.037 20.2767H15.7031C13.2643 20.2933 10.8781 20.9872 8.81062 22.2808C6.74313 23.5743 5.07564 25.4169 3.99414 27.6028C5.02316 28.7761 6.21988 29.791 7.54553 30.6146C8.11934 28.8989 9.21815 27.4071 10.6865 26.3503C12.1548 25.2935 13.9183 24.7252 15.7274 24.7259H15.9485C17.7496 24.7601 19.4949 25.3564 20.9405 26.4313C22.3861 27.5061 23.4596 29.0058 24.011 30.7208Z" fill="#4620ED"/>
</g>
<g clip-path="url(#clip1_384_421)">
<path d="M5.67339 15.9729C8.07187 15.9959 10.0349 14.0702 10.0579 11.6718C10.0809 9.27328 8.15525 7.31025 5.75677 7.28723C3.35829 7.2642 1.39527 9.1899 1.37224 11.5884C1.34922 13.9869 3.27491 15.9499 5.67339 15.9729Z" fill="#FF5F17"/>
<path d="M7.70856 3.38313C9.05014 2.58424 10.5025 1.98811 12.0184 1.61407C13.4541 3.57637 14.3186 5.89779 14.5161 8.32117C14.7136 10.7446 14.2364 13.1753 13.1374 15.3442C13.0865 15.4415 13.0356 15.541 12.9826 15.6383C11.8146 17.7799 10.0746 19.5549 7.95678 20.7653C5.8389 21.9758 3.42639 22.574 0.988353 22.4934C0.441532 21.0312 0.114386 19.4961 0.0175781 17.9381C1.80177 18.2459 3.63759 17.9844 5.26486 17.1906C6.89213 16.3968 8.2283 15.111 9.08401 13.5154L9.18794 13.3208C10.0079 11.7168 10.3061 9.89668 10.0408 8.11489C9.77559 6.33311 8.96016 4.67875 7.70856 3.38313Z" fill="#FF5F17"/>
<path d="M25.7946 15.6427C28.1911 15.5418 30.052 13.5174 29.9512 11.1209C29.8503 8.72441 27.8258 6.86344 25.4294 6.9643C23.0329 7.06516 21.1719 9.08966 21.2728 11.4861C21.3736 13.8826 23.3981 15.7436 25.7946 15.6427Z" fill="#BFC9FF"/>
<path d="M23.3605 3.12885C21.9938 2.37489 20.5227 1.8279 18.9954 1.50574C17.6261 3.51464 16.8394 5.86322 16.7223 8.29156C16.6052 10.7199 17.1623 13.1333 18.332 15.2646C18.385 15.3619 18.4403 15.4592 18.4956 15.5543C19.7327 17.6565 21.5296 19.3738 23.6857 20.5143C25.8419 21.6549 28.2726 22.1739 30.7065 22.0136C31.205 20.5344 31.4822 18.9897 31.5292 17.4295C29.7579 17.7931 27.9172 17.5907 26.2672 16.851C24.6172 16.1114 23.2415 14.8718 22.3345 13.3076C22.2969 13.2457 22.2615 13.1815 22.2261 13.1174C21.3492 11.5423 20.9871 9.73232 21.1905 7.94109C21.3939 6.14986 22.1527 4.46717 23.3605 3.12885Z" fill="#BFC9FF"/>
<path d="M11.7038 26.5735C10.5892 28.6974 11.4074 31.3227 13.5313 32.4373C15.6552 33.5519 18.2805 32.7337 19.3951 30.6098C20.5097 28.4859 19.6915 25.8606 17.5676 24.746C15.4437 23.6314 12.8184 24.4496 11.7038 26.5735Z" fill="#4620ED"/>
<path d="M23.9905 30.735C25.328 29.9299 26.5389 28.9314 27.5839 27.7718C26.534 25.5788 24.8977 23.7191 22.856 22.3988C20.8144 21.0784 18.4472 20.3488 16.0165 20.2909H15.6826C13.2438 20.3076 10.8576 21.0014 8.79011 22.295C6.72262 23.5886 5.05514 25.4311 3.97363 27.617C5.00266 28.7903 6.19937 29.8052 7.52502 30.6288C8.09883 28.9131 9.19765 27.4213 10.666 26.3645C12.1343 25.3077 13.8978 24.7394 15.7069 24.7401H15.928C17.7291 24.7744 19.4744 25.3706 20.92 26.4455C22.3656 27.5203 23.4391 29.0201 23.9905 30.735Z" fill="#4620ED"/>
</g>
<ellipse cx="50.2049" cy="3.87651" rx="1.43736" ry="1.43736" fill="#1B0B5F"/>
<path d="M41.0817 15.5555V10.4942H46.064V8.47754H41.0817V5.15603H47.527V3.09985H38.6104V15.5555H41.0817Z" fill="#1B0B5F"/>
<path d="M49.0346 6.83655V15.5555H51.4071V6.83655H49.0346Z" fill="#1B0B5F"/>
<path d="M55.7706 10.8896C55.7706 9.42654 56.5219 8.47754 57.7279 8.47754C58.8944 8.47754 59.4282 9.2486 59.4282 10.593V15.5555H61.8007V10.1185C61.8007 8.18097 60.9505 6.5993 58.6176 6.5993C57.3127 6.5993 56.2055 7.27151 55.7706 8.26006V6.83655H53.3981V15.5555H55.7706V10.8896Z" fill="#1B0B5F"/>
<path d="M70.1536 11.3641C70.1536 12.9655 69.1848 13.9343 67.8404 13.9343C66.3576 13.9343 65.5865 12.8469 65.5865 11.2059C65.5865 9.54516 66.3576 8.45777 67.8404 8.45777C69.1848 8.45777 70.1536 9.44631 70.1536 11.028V11.3641ZM70.1338 15.5555H72.5063V3.09985H70.1338V8.51708C69.7384 7.44945 68.6708 6.5993 67.1286 6.5993C64.5386 6.5993 63.1942 8.6357 63.1942 11.2059C63.1942 13.7761 64.5386 15.7928 67.1286 15.7928C68.6708 15.7928 69.7384 14.9426 70.1338 13.8948V15.5555Z" fill="#1B0B5F"/>
<path d="M83.293 11.7793C83.293 13.183 82.344 14.132 81.0985 14.132C80.3472 14.132 79.8924 13.7761 79.8924 13.183C79.8924 12.3131 80.624 12.1352 81.652 11.9177L83.293 11.5618V11.7793ZM85.6062 9.96035C85.6062 7.66693 84.1234 6.5993 81.8695 6.5993C79.5563 6.5993 78.1921 7.84487 77.8956 9.62425L80.0506 9.82196C80.2483 8.97181 80.7821 8.37868 81.7707 8.37868C82.779 8.37868 83.293 8.97181 83.293 9.94058V10.1383L80.9007 10.6128C78.9237 11.0082 77.5792 11.7002 77.5792 13.3609C77.5792 14.8635 78.6864 15.773 80.5053 15.773C81.7904 15.773 82.9767 15.2392 83.471 14.2309C83.6884 15.1799 84.3211 15.7532 85.3097 15.7532C86.1005 15.7532 86.575 15.4962 86.9506 15.1996V13.9343C86.6936 14.0529 86.4564 14.1122 86.2191 14.1122C85.8435 14.1122 85.6062 13.8948 85.6062 13.44V9.96035Z" fill="#1B0B5F"/>
<path d="M49.168 32.1404C48.7528 31.6857 48.6935 31.053 48.5353 29.2143C48.3969 27.7513 47.6654 26.9209 46.2419 26.6441C47.7643 26.4464 48.9901 25.359 48.9901 23.4808C48.9901 21.1676 47.4282 19.6848 44.2451 19.6848H38.6104V32.1404H41.0422V27.5338H43.9683C45.3918 27.5338 46.0244 28.1665 46.1233 29.5702C46.2221 30.9542 46.3803 31.8043 46.6373 32.1404H49.168ZM41.0422 25.5963V21.6816H43.9089C45.7081 21.6816 46.5385 22.4132 46.5385 23.6587C46.5385 25.0032 45.7081 25.5963 43.9089 25.5963H41.0422Z" fill="#1B0B5F"/>
<path d="M57.0617 29.0957C56.7256 30.0843 56.0336 30.5785 54.8671 30.5785C53.582 30.5785 52.5737 29.6691 52.4946 28.384H59.0388V27.5338C59.0388 25.1613 57.5757 23.1842 54.7287 23.1842C52.119 23.1842 50.1616 25.1613 50.1616 27.9095C50.1616 30.6576 52.0992 32.3777 54.788 32.3777C57.0221 32.3777 58.5247 31.231 58.9795 29.2934L57.0617 29.0957ZM52.5342 26.9012C52.7516 25.8138 53.4041 24.9241 54.709 24.9241C56.0336 24.9241 56.6465 25.8928 56.7256 26.9012H52.5342Z" fill="#1B0B5F"/>
<path d="M60.1243 27.7908C60.1243 30.5588 62.0421 32.3777 64.7309 32.3777C67.3209 32.3777 68.7444 30.6774 68.9421 28.5817L66.9453 28.4037C66.7673 29.7284 66.0358 30.5588 64.7309 30.5588C63.4261 30.5588 62.5166 29.59 62.5166 27.7908C62.5166 25.9719 63.4261 25.0031 64.7309 25.0031C66.0358 25.0031 66.7673 25.8138 66.9453 27.1186L68.9421 26.9802C68.7444 24.8845 67.3209 23.1842 64.7309 23.1842C62.0421 23.1842 60.1243 25.0229 60.1243 27.7908Z" fill="#1B0B5F"/>
<path d="M76.4381 23.5401C76.1811 23.3226 75.7461 23.1842 75.2123 23.1842C74.0063 23.1842 73.0968 24.0937 72.7805 25.0822V23.4215H70.408V32.1404H72.7805V27.8304C72.7805 26.2487 73.6109 25.3788 74.8366 25.3788C75.41 25.3788 75.8054 25.4974 76.2601 25.7544L76.4381 23.5401Z" fill="#1B0B5F"/>
<path d="M83.3644 28.0874C83.3644 29.5702 82.6526 30.5192 81.4862 30.5192C80.3197 30.5192 79.8254 29.7284 79.8254 28.4037V23.4215H77.4529V28.8782C77.4529 30.8158 78.2437 32.3777 80.5569 32.3777C81.8816 32.3777 82.9097 31.7253 83.3644 30.7169V32.1404H85.7369V23.4215H83.3644V28.0874Z" fill="#1B0B5F"/>
<path d="M87.7461 23.4215V32.1404H90.1186V23.4215H87.7461Z" fill="#1B0B5F"/>
<path d="M92.4062 29.9261C92.4062 31.7846 93.5331 32.3777 94.8775 32.3777C95.9452 32.3777 96.6569 32.1009 97.2896 31.6264V30.0645C96.7755 30.3018 96.2813 30.4797 95.8068 30.4797C95.095 30.4797 94.7589 30.1436 94.7589 29.3923V25.0822H97.1314V23.4215H94.7589V21.0094H93.3156L93.0388 22.1957C92.8411 23.0063 92.6039 23.4412 91.7537 23.5796L91.1606 23.6785V25.0822H92.4062V29.9261Z" fill="#1B0B5F"/>
<path d="M104.983 29.0957C104.647 30.0843 103.955 30.5785 102.788 30.5785C101.503 30.5785 100.495 29.6691 100.416 28.384H106.96V27.5338C106.96 25.1613 105.497 23.1842 102.65 23.1842C100.04 23.1842 98.0829 25.1613 98.0829 27.9095C98.0829 30.6576 100.02 32.3777 102.709 32.3777C104.943 32.3777 106.446 31.231 106.901 29.2934L104.983 29.0957ZM100.455 26.9012C100.673 25.8138 101.325 24.9241 102.63 24.9241C103.955 24.9241 104.568 25.8928 104.647 26.9012H100.455Z" fill="#1B0B5F"/>
<path d="M114.512 23.5401C114.255 23.3226 113.821 23.1842 113.287 23.1842C112.081 23.1842 111.171 24.0937 110.855 25.0822V23.4215H108.482V32.1404H110.855V27.8304C110.855 26.2487 111.685 25.3788 112.911 25.3788C113.484 25.3788 113.88 25.4974 114.335 25.7544L114.512 23.5401Z" fill="#1B0B5F"/>
<path d="M90.3694 20.6047C90.3694 21.3985 89.7258 22.0421 88.932 22.0421C88.1382 22.0421 87.4946 21.3985 87.4946 20.6047C87.4946 19.8109 88.1382 19.1673 88.932 19.1673C89.7258 19.1673 90.3694 19.8109 90.3694 20.6047Z" fill="#1B0B5F"/>
<defs>
<clipPath id="clip0_384_421">
<rect width="31.5224" height="31.8607" fill="white" transform="translate(0.0205078 1.0625)"/>
</clipPath>
<clipPath id="clip1_384_421">
<rect width="31.5224" height="31.8607" fill="white" transform="translate(0 1.07672)"/>
</clipPath>
</defs>
</svg>
